<?xml version="1.0" encoding="UTF-8"?>
<!DOCTYPE svg PUBLIC "-//W3C//DTD SVG 1.1//EN" "http://www.w3.org/Graphics/SVG/1.1/DTD/svg11.dtd">
<!-- Creator: CorelDRAW X8 -->
<svg xmlns="http://www.w3.org/2000/svg" preserveAspectRatio="none" xml:space="preserve" width="37.8602mm" height="184.543mm" version="1.1" style="shape-rendering:geometricPrecision; text-rendering:geometricPrecision; image-rendering:optimizeQuality; fill-rule:evenodd; clip-rule:evenodd"
viewBox="0 0 4565 22254"
 xmlns:xlink="http://www.w3.org/1999/xlink">
 <defs>
  <style type="text/css">
   <![CDATA[
    .fil0 {fill:white}
   ]]>
  </style>
 </defs>
 <g id="Слой_x0020_1">
  <metadata id="CorelCorpID_0Corel-Layer"/>
  <g>
   <path class="fil0" d="M0 0c1034,673 2069,1345 2752,1940 682,595 1013,1112 1220,1805 207,693 290,1562 -196,2576 -487,1014 -1542,2172 -2028,3165 -486,993 -403,1821 -104,2515 298,695 813,1257 1296,1879 483,623 933,1305 1245,2069 311,764 484,1609 314,2346 -170,737 -682,1367 -1489,2008 -807,642 -1908,1296 -3010,1951l0 -22254z"/>
  </g>
 </g>
</svg>
